<svg xmlns="http://www.w3.org/2000/svg" viewBox="0 0 400 160" width="400" height="160">
  <defs>
    <linearGradient id="mainGrad" x1="0%" y1="0%" x2="100%" y2="100%">
      <stop offset="0%" stopColor="#4F46E5"/>
      <stop offset="100%" stopColor="#06B6D4"/>
    </linearGradient>
    <linearGradient id="finiGrad" x1="0%" y1="0%" x2="100%" y2="0%">
      <stop offset="0%" stopColor="#F59E0B"/>
      <stop offset="100%" stopColor="#EF4444"/>
    </linearGradient>
  </defs>

  <g transform="translate(80,80)">
    <path d="M -60,-30 C -90,-30 -90,30 -60,30 C -30,30 0,0 0,0"
          fill="none" stroke="url(#mainGrad)" strokeWidth="8" strokeLinecap="round"/>
    <path d="M 0,0 C 0,0 30,30 60,30 C 90,30 90,-30 60,-30 C 30,-30 0,0 0,0"
          fill="none" stroke="url(#mainGrad)" strokeWidth="8" strokeLinecap="round"/>

    <line x1="68" y1="-28" x2="68" y2="32" stroke="url(#finiGrad)" strokeWidth="6" strokeLinecap="round"/>
    <rect x="72" y="-38" width="24" height="20" rx="2" fill="url(#finiGrad)"/>
    <g fill="white" opacity="0.8">
      <rect x="74" y="-36" width="4" height="4"/>
      <rect x="82" y="-36" width="4" height="4"/>
      <rect x="90" y="-36" width="4" height="4"/>
      <rect x="78" y="-32" width="4" height="4"/>
      <rect x="86" y="-32" width="4" height="4"/>
      <rect x="74" y="-28" width="4" height="4"/>
      <rect x="82" y="-28" width="4" height="4"/>
      <rect x="90" y="-28" width="4" height="4"/>
    </g>
  </g>

  <text x="200" y="78" fontFamily="'Segoe UI', Roboto, Helvetica, sans-serif" fontSize="44" fontWeight="700" fill="url(#mainGrad)" letterSpacing="2">In</text>
  <text x="268" y="78" fontFamily="'Segoe UI', Roboto, Helvetica, sans-serif" fontSize="44" fontWeight="300" fill="url(#finiGrad)" letterSpacing="1">Fini</text>

  <text x="210" y="115" fontFamily="'Segoe UI', Roboto, Helvetica, sans-serif" fontSize="14" fill="#94A3B8" textAnchor="middle" letterSpacing="1">quantum physics · honest diagnostics</text>
</svg>
